<?xml version="1.0" encoding="UTF-8" standalone="no"?>
<!DOCTYPE svg PUBLIC "-//W3C//DTD SVG 1.1//EN" "http://www.w3.org/Graphics/SVG/1.1/DTD/svg11.dtd">
<svg xmlns="http://www.w3.org/2000/svg" version="1.1" viewBox="0.00 0.00 720.00 720.00">
    <g stroke-width="2.00" fill="none" stroke-linecap="butt">
        <path stroke="#8497a1" vector-effect="non-scaling-stroke" d="
  M 395.24 459.34
  C 400.90 453.94 409.10 455.27 413.64 461.35
  C 416.33 464.94 415.48 472.71 415.31 477.08
  A 4.20 4.18 -65.3 0 0 416.40 480.05
  Q 419.38 483.31 422.32 486.79
  C 425.97 491.13 425.76 494.46 425.77 500.84
  Q 425.80 513.21 425.63 525.77
  A 1.58 1.57 -4.0 0 0 427.45 527.35
  Q 428.25 527.22 429.02 526.93
  Q 441.69 522.08 452.23 517.04
  C 494.10 497.00 527.91 465.43 549.89 423.98
  Q 554.13 415.97 558.11 405.51
  Q 563.54 391.27 566.58 378.50
  C 572.56 353.47 574.10 326.65 569.92 301.06
  Q 559.51 237.39 514.54 191.96
  Q 483.39 160.51 440.87 144.88
  Q 419.87 137.16 399.22 134.13
  Q 374.81 130.54 354.21 132.21
  Q 323.69 134.67 293.09 146.31
  C 263.21 157.67 235.29 176.40 214.16 200.66
  Q 184.99 234.15 172.51 276.80
  Q 169.66 286.52 168.08 295.95
  Q 156.29 366.09 189.27 427.48
  C 194.55 437.31 201.33 447.44 208.04 456.23
  C 233.32 489.35 269.08 513.02 308.64 527.42
  Q 309.42 527.70 310.22 527.45
  A 1.61 1.60 82.0 0 0 311.35 525.94
  Q 311.54 513.94 311.40 500.08
  C 311.34 494.39 311.39 490.12 314.88 486.05
  Q 317.61 482.88 320.66 479.99
  A 3.38 3.36 67.6 0 0 321.70 477.46
  C 321.56 472.46 320.64 466.52 322.84 462.15
  C 325.56 456.74 331.87 454.53 337.48 457.04
  C 342.67 459.36 346.76 464.60 347.13 470.40
  C 347.62 478.10 348.09 485.58 342.90 491.60
  C 342.32 492.28 341.71 493.76 341.69 494.64
  Q 341.39 515.17 341.57 537.07
  A 1.68 1.68 0.0 0 0 343.25 538.73
  L 393.48 538.70
  A 2.00 2.00 0.0 0 0 395.48 536.71
  Q 395.60 515.62 395.40 496.24
  C 395.39 494.68 395.07 493.06 394.25 491.80
  C 392.29 488.76 390.04 485.14 389.77 481.35
  C 389.22 473.70 389.46 464.85 395.24 459.34"
        />
        <path stroke="#8497a1" vector-effect="non-scaling-stroke" d="
  M 436.80 165.70
  Q 385.84 145.78 333.77 155.97
  Q 286.41 165.23 249.90 195.73
  C 223.22 218.02 202.34 248.64 193.21 282.46
  Q 181.16 327.12 191.02 371.05
  Q 203.53 426.81 246.85 466.29
  Q 267.85 485.44 294.45 498.33
  Q 295.68 498.93 297.12 499.31
  Q 297.60 499.44 297.59 498.94
  C 297.49 494.60 296.96 489.05 298.26 485.07
  Q 300.42 478.49 306.72 474.41
  A 1.20 1.19 -17.0 0 0 307.27 473.39
  Q 307.20 446.65 307.26 422.42
  C 307.29 413.55 312.98 404.94 321.59 402.37
  Q 324.40 401.53 332.00 401.52
  Q 370.75 401.47 409.50 401.42
  C 418.28 401.41 425.55 407.14 428.53 415.25
  Q 429.80 418.70 429.79 423.73
  Q 429.72 447.57 429.58 473.18
  A 1.18 1.18 0.0 0 0 430.09 474.17
  Q 439.55 480.72 439.57 491.43
  Q 439.58 495.55 439.29 499.09
  Q 439.24 499.71 439.83 499.52
  Q 441.77 498.88 443.60 497.96
  C 473.27 483.09 498.59 462.45 517.77 435.31
  Q 541.01 402.43 547.81 361.43
  Q 549.13 353.48 549.90 345.79
  Q 552.35 321.12 547.33 296.99
  C 543.26 277.44 536.27 257.23 525.60 240.40
  C 504.33 206.86 473.28 179.96 436.80 165.70"
        />
        <path stroke="#8497a1" vector-effect="non-scaling-stroke" d="
  M 333.76 421.19
  A 4.81 4.81 0.0 0 0 328.95 416.38
  A 4.81 4.81 0.0 0 0 324.14 421.19
  A 4.81 4.81 0.0 0 0 328.95 426.00
  A 4.81 4.81 0.0 0 0 333.76 421.19"
        />
        <path stroke="#8497a1" vector-effect="non-scaling-stroke" d="
  M 410.4822 426.3241
  A 5.02 4.68 61.8 0 0 412.2345 419.6885
  A 5.02 4.68 61.8 0 0 405.7378 417.4759
  A 5.02 4.68 61.8 0 0 403.9855 424.1115
  A 5.02 4.68 61.8 0 0 410.4822 426.3241"
        />
        <path stroke="#8497a1" vector-effect="non-scaling-stroke" d="
  M 372.5271 462.3066
  A 19.24 18.88 77.4 0 0 386.7553 439.4115
  A 19.24 18.88 77.4 0 0 364.1329 424.7534
  A 19.24 18.88 77.4 0 0 349.9047 447.6485
  A 19.24 18.88 77.4 0 0 372.5271 462.3066"
        />
        <path stroke="#745d60" vector-effect="non-scaling-stroke" d="
  M 331.3633 440.7311
  A 5.70 5.55 63.5 0 0 333.7869 433.1536
  A 5.70 5.55 63.5 0 0 326.2767 430.5289
  A 5.70 5.55 63.5 0 0 323.8531 438.1064
  A 5.70 5.55 63.5 0 0 331.3633 440.7311"
        />
        <path stroke="#8497a1" vector-effect="non-scaling-stroke" d="
  M 379.2506 482.2581
  A 4.35 4.35 0.0 0 0 374.9158 477.8930
  L 361.7759 477.8471
  A 4.35 4.35 0.0 0 0 357.4108 482.1819
  L 357.4094 482.5819
  A 4.35 4.35 0.0 0 0 361.7442 486.9470
  L 374.8841 486.9929
  A 4.35 4.35 0.0 0 0 379.2492 482.6581
  L 379.2506 482.2581"
        />
        <path stroke="#8497a1" vector-effect="non-scaling-stroke" d="
  M 379.4384 505.0531
  A 4.36 4.36 0.0 0 0 375.0481 500.7237
  L 361.7484 500.8165
  A 4.36 4.36 0.0 0 0 357.4189 505.2069
  L 357.4216 505.5869
  A 4.36 4.36 0.0 0 0 361.8119 509.9163
  L 375.1116 509.8235
  A 4.36 4.36 0.0 0 0 379.4411 505.4331
  L 379.4384 505.0531"
        />
        <path stroke="#8497a1" vector-effect="non-scaling-stroke" d="
  M 436.73 321.30
  Q 437.91 322.40 439.72 322.88
  C 448.21 325.11 455.62 326.40 464.34 324.25
  C 480.39 320.29 493.07 308.11 496.47 291.69
  C 501.05 269.52 488.79 249.52 467.90 241.72
  Q 467.34 241.51 467.34 240.90
  L 467.31 214.26
  A 3.05 3.05 0.0 0 0 464.26 211.21
  L 272.46 211.25
  A 2.72 2.71 -0.2 0 0 269.74 213.98
  L 269.88 241.47
  Q 269.88 242.07 269.31 242.27
  C 251.71 248.31 240.39 264.22 240.12 282.90
  Q 239.97 293.20 244.34 301.52
  Q 253.70 319.35 272.24 324.08
  C 280.89 326.29 288.20 325.66 296.57 322.83
  Q 298.64 322.13 300.32 320.90
  A 0.42 0.42 0.0 0 1 300.98 321.28
  Q 300.06 330.61 296.16 338.61
  Q 289.93 351.36 283.78 363.55
  C 283.13 364.83 282.73 366.19 282.20 367.51
  A 0.46 0.46 0.0 0 1 281.36 367.55
  Q 273.22 352.03 264.16 332.26
  Q 263.22 330.21 261.75 328.20
  A 1.37 1.37 0.0 0 0 260.49 327.65
  C 240.34 329.86 223.06 342.57 217.82 362.47
  C 215.87 369.90 216.41 380.18 216.51 388.61
  A 2.72 2.72 0.0 0 0 219.24 391.29
  Q 369.00 390.80 517.78 391.29
  A 2.39 2.38 -89.0 0 0 520.17 388.97
  Q 520.49 378.39 520.21 369.55
  Q 519.92 360.31 514.23 350.89
  Q 501.36 329.62 475.99 327.68
  Q 475.08 327.61 474.68 328.44
  L 456.31 366.30
  Q 455.37 368.22 454.44 366.30
  Q 446.34 349.45 438.28 332.49
  Q 436.37 328.48 436.28 321.50
  Q 436.27 320.87 436.73 321.30"
        />
        <path stroke="#745d60" vector-effect="non-scaling-stroke" d="
  M 314.97 254.67
  C 333.05 275.33 327.60 305.33 304.37 319.58
  Q 302.12 320.96 304.76 320.79
  Q 312.33 320.30 325.02 320.33
  Q 377.93 320.50 432.69 320.43
  Q 433.14 320.43 433.04 319.99
  Q 432.94 319.51 432.52 319.27
  C 425.39 315.24 418.49 306.79 415.07 299.39
  Q 409.31 286.88 412.87 272.00
  C 417.07 254.49 432.94 241.81 450.41 239.79
  A 0.76 0.75 87.4 0 0 451.08 239.05
  L 451.24 227.88
  Q 451.24 227.27 450.63 227.27
  L 286.52 227.34
  Q 285.88 227.34 285.87 227.98
  L 285.73 239.48
  Q 285.72 239.80 286.05 239.84
  Q 303.51 241.57 314.97 254.67"
        />
        <path stroke="#8497a1" vector-effect="non-scaling-stroke" d="
  M 292.37 278.89
  Q 278.16 272.76 271.44 258.72
  Q 271.21 258.24 270.73 258.48
  C 255.08 266.58 251.47 287.34 262.87 300.52
  C 269.69 308.41 279.87 311.02 290.29 308.85
  Q 293.50 308.18 296.50 306.34
  Q 310.02 298.01 310.28 282.13
  Q 310.29 281.44 309.61 281.47
  C 303.73 281.71 297.66 281.17 292.37 278.89"
        />
        <path stroke="#8497a1" vector-effect="non-scaling-stroke" d="
  M 481.13 281.26
  C 474.69 281.56 468.33 281.29 462.23 278.65
  Q 448.45 272.68 441.87 258.97
  Q 441.62 258.43 441.09 258.71
  C 430.43 264.55 425.53 277.90 428.32 289.27
  C 431.08 300.50 439.89 308.34 451.79 309.40
  C 460.06 310.14 467.52 308.53 473.44 302.69
  Q 482.42 293.82 481.79 281.86
  A 0.63 0.63 0.0 0 0 481.13 281.26"
        />
        <path stroke="#8497a1" vector-effect="non-scaling-stroke" d="
  M 386.85 374.05
  C 386.37 358.35 393.64 345.86 405.31 335.95
  Q 405.96 335.39 405.10 335.40
  Q 369.36 335.64 331.62 335.28
  Q 330.84 335.27 331.44 335.77
  Q 349.88 351.01 349.95 374.00
  Q 349.95 374.74 350.69 374.73
  L 386.22 374.70
  Q 386.86 374.70 386.85 374.05"
        />
        <path stroke="#745d60" vector-effect="non-scaling-stroke" d="
  M 363.79 262.56
  A 1.92 1.92 0.0 0 0 360.79 264.13
  L 360.65 283.37
  A 1.92 1.92 0.0 0 0 363.55 285.04
  L 378.68 276.03
  A 1.92 1.92 0.0 0 0 378.78 272.79
  L 363.79 262.56"
        />
        <path stroke="#8497a1" vector-effect="non-scaling-stroke" d="
  M 376.68 443.45
  A 8.31 8.31 0.0 0 0 368.37 435.14
  A 8.31 8.31 0.0 0 0 360.06 443.45
  A 8.31 8.31 0.0 0 0 368.37 451.76
  A 8.31 8.31 0.0 0 0 376.68 443.45"
        />
    </g>
    <path fill="#feffff" d="
  M 538.02 577.21
  C 489.26 576.83 440.35 577.14 391.85 577.33
  C 373.92 577.41 355.69 577.05 338.00 577.30
  Q 327.29 577.44 317.77 577.42
  Q 256.19 577.25 195.20 577.19
  Q 187.32 577.18 177.98 576.49
  Q 168.82 575.82 161.04 573.33
  Q 133.68 564.57 118.32 540.47
  Q 112.45 531.27 110.43 522.50
  Q 108.35 513.49 108.12 503.00
  C 107.22 462.22 107.90 420.70 107.74 385.50
  Q 107.58 348.80 107.64 328.50
  C 107.70 310.95 107.43 293.84 107.83 275.75
  Q 108.04 265.80 107.90 255.78
  Q 107.33 215.35 107.63 174.73
  Q 107.72 160.85 110.53 150.88
  C 113.58 140.05 119.46 131.70 126.87 123.18
  Q 129.75 119.88 133.21 117.12
  C 145.56 107.25 160.83 99.71 176.88 98.97
  Q 181.02 98.78 185.45 98.64
  Q 192.76 98.40 194.04 98.40
  Q 248.58 98.70 296.75 98.67
  Q 330.03 98.65 363.26 98.57
  Q 373.36 98.54 383.24 98.52
  Q 441.19 98.42 528.00 98.68
  Q 539.87 98.71 551.76 98.84
  Q 582.60 99.17 603.91 120.48
  Q 606.48 123.05 608.23 125.47
  C 609.93 127.83 612.14 129.84 613.65 132.24
  Q 624.60 149.62 624.74 169.49
  Q 625.02 211.59 624.68 277.17
  Q 624.63 286.64 624.72 297.25
  C 624.95 324.65 624.50 351.54 624.67 378.50
  Q 624.89 413.23 624.77 447.99
  C 624.71 466.71 625.19 485.71 624.84 504.24
  C 624.71 511.45 624.18 519.01 621.89 525.83
  Q 616.91 540.69 607.05 552.08
  C 598.36 562.10 585.90 569.25 572.98 573.56
  C 565.72 575.98 557.98 576.55 550.46 576.95
  Q 544.71 577.26 538.02 577.21
  Z
  M 395.24 459.34
  C 400.90 453.94 409.10 455.27 413.64 461.35
  C 416.33 464.94 415.48 472.71 415.31 477.08
  A 4.20 4.18 -65.3 0 0 416.40 480.05
  Q 419.38 483.31 422.32 486.79
  C 425.97 491.13 425.76 494.46 425.77 500.84
  Q 425.80 513.21 425.63 525.77
  A 1.58 1.57 -4.0 0 0 427.45 527.35
  Q 428.25 527.22 429.02 526.93
  Q 441.69 522.08 452.23 517.04
  C 494.10 497.00 527.91 465.43 549.89 423.98
  Q 554.13 415.97 558.11 405.51
  Q 563.54 391.27 566.58 378.50
  C 572.56 353.47 574.10 326.65 569.92 301.06
  Q 559.51 237.39 514.54 191.96
  Q 483.39 160.51 440.87 144.88
  Q 419.87 137.16 399.22 134.13
  Q 374.81 130.54 354.21 132.21
  Q 323.69 134.67 293.09 146.31
  C 263.21 157.67 235.29 176.40 214.16 200.66
  Q 184.99 234.15 172.51 276.80
  Q 169.66 286.52 168.08 295.95
  Q 156.29 366.09 189.27 427.48
  C 194.55 437.31 201.33 447.44 208.04 456.23
  C 233.32 489.35 269.08 513.02 308.64 527.42
  Q 309.42 527.70 310.22 527.45
  A 1.61 1.60 82.0 0 0 311.35 525.94
  Q 311.54 513.94 311.40 500.08
  C 311.34 494.39 311.39 490.12 314.88 486.05
  Q 317.61 482.88 320.66 479.99
  A 3.38 3.36 67.6 0 0 321.70 477.46
  C 321.56 472.46 320.64 466.52 322.84 462.15
  C 325.56 456.74 331.87 454.53 337.48 457.04
  C 342.67 459.36 346.76 464.60 347.13 470.40
  C 347.62 478.10 348.09 485.58 342.90 491.60
  C 342.32 492.28 341.71 493.76 341.69 494.64
  Q 341.39 515.17 341.57 537.07
  A 1.68 1.68 0.0 0 0 343.25 538.73
  L 393.48 538.70
  A 2.00 2.00 0.0 0 0 395.48 536.71
  Q 395.60 515.62 395.40 496.24
  C 395.39 494.68 395.07 493.06 394.25 491.80
  C 392.29 488.76 390.04 485.14 389.77 481.35
  C 389.22 473.70 389.46 464.85 395.24 459.34
  Z"
    />
    <path fill="#0a2f42" d="
  M 413.64 461.35
  C 409.10 455.27 400.90 453.94 395.24 459.34
  C 389.46 464.85 389.22 473.70 389.77 481.35
  C 390.04 485.14 392.29 488.76 394.25 491.80
  C 395.07 493.06 395.39 494.68 395.40 496.24
  Q 395.60 515.62 395.48 536.71
  A 2.00 2.00 0.0 0 1 393.48 538.70
  L 343.25 538.73
  A 1.68 1.68 0.0 0 1 341.57 537.07
  Q 341.39 515.17 341.69 494.64
  C 341.71 493.76 342.32 492.28 342.90 491.60
  C 348.09 485.58 347.62 478.10 347.13 470.40
  C 346.76 464.60 342.67 459.36 337.48 457.04
  C 331.87 454.53 325.56 456.74 322.84 462.15
  C 320.64 466.52 321.56 472.46 321.70 477.46
  A 3.38 3.36 67.6 0 1 320.66 479.99
  Q 317.61 482.88 314.88 486.05
  C 311.39 490.12 311.34 494.39 311.40 500.08
  Q 311.54 513.94 311.35 525.94
  A 1.61 1.60 82.0 0 1 310.22 527.45
  Q 309.42 527.70 308.64 527.42
  C 269.08 513.02 233.32 489.35 208.04 456.23
  C 201.33 447.44 194.55 437.31 189.27 427.48
  Q 156.29 366.09 168.08 295.95
  Q 169.66 286.52 172.51 276.80
  Q 184.99 234.15 214.16 200.66
  C 235.29 176.40 263.21 157.67 293.09 146.31
  Q 323.69 134.67 354.21 132.21
  Q 374.81 130.54 399.22 134.13
  Q 419.87 137.16 440.87 144.88
  Q 483.39 160.51 514.54 191.96
  Q 559.51 237.39 569.92 301.06
  C 574.10 326.65 572.56 353.47 566.58 378.50
  Q 563.54 391.27 558.11 405.51
  Q 554.13 415.97 549.89 423.98
  C 527.91 465.43 494.10 497.00 452.23 517.04
  Q 441.69 522.08 429.02 526.93
  Q 428.25 527.22 427.45 527.35
  A 1.58 1.57 -4.0 0 1 425.63 525.77
  Q 425.80 513.21 425.77 500.84
  C 425.76 494.46 425.97 491.13 422.32 486.79
  Q 419.38 483.31 416.40 480.05
  A 4.20 4.18 -65.3 0 1 415.31 477.08
  C 415.48 472.71 416.33 464.94 413.64 461.35
  Z
  M 436.80 165.70
  Q 385.84 145.78 333.77 155.97
  Q 286.41 165.23 249.90 195.73
  C 223.22 218.02 202.34 248.64 193.21 282.46
  Q 181.16 327.12 191.02 371.05
  Q 203.53 426.81 246.85 466.29
  Q 267.85 485.44 294.45 498.33
  Q 295.68 498.93 297.12 499.31
  Q 297.60 499.44 297.59 498.94
  C 297.49 494.60 296.96 489.05 298.26 485.07
  Q 300.42 478.49 306.72 474.41
  A 1.20 1.19 -17.0 0 0 307.27 473.39
  Q 307.20 446.65 307.26 422.42
  C 307.29 413.55 312.98 404.94 321.59 402.37
  Q 324.40 401.53 332.00 401.52
  Q 370.75 401.47 409.50 401.42
  C 418.28 401.41 425.55 407.14 428.53 415.25
  Q 429.80 418.70 429.79 423.73
  Q 429.72 447.57 429.58 473.18
  A 1.18 1.18 0.0 0 0 430.09 474.17
  Q 439.55 480.72 439.57 491.43
  Q 439.58 495.55 439.29 499.09
  Q 439.24 499.71 439.83 499.52
  Q 441.77 498.88 443.60 497.96
  C 473.27 483.09 498.59 462.45 517.77 435.31
  Q 541.01 402.43 547.81 361.43
  Q 549.13 353.48 549.90 345.79
  Q 552.35 321.12 547.33 296.99
  C 543.26 277.44 536.27 257.23 525.60 240.40
  C 504.33 206.86 473.28 179.96 436.80 165.70
  Z
  M 333.76 421.19
  A 4.81 4.81 0.0 0 0 328.95 416.38
  A 4.81 4.81 0.0 0 0 324.14 421.19
  A 4.81 4.81 0.0 0 0 328.95 426.00
  A 4.81 4.81 0.0 0 0 333.76 421.19
  Z
  M 410.4822 426.3241
  A 5.02 4.68 61.8 0 0 412.2345 419.6885
  A 5.02 4.68 61.8 0 0 405.7378 417.4759
  A 5.02 4.68 61.8 0 0 403.9855 424.1115
  A 5.02 4.68 61.8 0 0 410.4822 426.3241
  Z
  M 372.5271 462.3066
  A 19.24 18.88 77.4 0 0 386.7553 439.4115
  A 19.24 18.88 77.4 0 0 364.1329 424.7534
  A 19.24 18.88 77.4 0 0 349.9047 447.6485
  A 19.24 18.88 77.4 0 0 372.5271 462.3066
  Z
  M 331.3633 440.7311
  A 5.70 5.55 63.5 0 0 333.7869 433.1536
  A 5.70 5.55 63.5 0 0 326.2767 430.5289
  A 5.70 5.55 63.5 0 0 323.8531 438.1064
  A 5.70 5.55 63.5 0 0 331.3633 440.7311
  Z
  M 379.2506 482.2581
  A 4.35 4.35 0.0 0 0 374.9158 477.8930
  L 361.7759 477.8471
  A 4.35 4.35 0.0 0 0 357.4108 482.1819
  L 357.4094 482.5819
  A 4.35 4.35 0.0 0 0 361.7442 486.9470
  L 374.8841 486.9929
  A 4.35 4.35 0.0 0 0 379.2492 482.6581
  L 379.2506 482.2581
  Z
  M 379.4384 505.0531
  A 4.36 4.36 0.0 0 0 375.0481 500.7237
  L 361.7484 500.8165
  A 4.36 4.36 0.0 0 0 357.4189 505.2069
  L 357.4216 505.5869
  A 4.36 4.36 0.0 0 0 361.8119 509.9163
  L 375.1116 509.8235
  A 4.36 4.36 0.0 0 0 379.4411 505.4331
  L 379.4384 505.0531
  Z"
    />
    <path fill="#feffff" d="
  M 436.80 165.70
  C 473.28 179.96 504.33 206.86 525.60 240.40
  C 536.27 257.23 543.26 277.44 547.33 296.99
  Q 552.35 321.12 549.90 345.79
  Q 549.13 353.48 547.81 361.43
  Q 541.01 402.43 517.77 435.31
  C 498.59 462.45 473.27 483.09 443.60 497.96
  Q 441.77 498.88 439.83 499.52
  Q 439.24 499.71 439.29 499.09
  Q 439.58 495.55 439.57 491.43
  Q 439.55 480.72 430.09 474.17
  A 1.18 1.18 0.0 0 1 429.58 473.18
  Q 429.72 447.57 429.79 423.73
  Q 429.80 418.70 428.53 415.25
  C 425.55 407.14 418.28 401.41 409.50 401.42
  Q 370.75 401.47 332.00 401.52
  Q 324.40 401.53 321.59 402.37
  C 312.98 404.94 307.29 413.55 307.26 422.42
  Q 307.20 446.65 307.27 473.39
  A 1.20 1.19 -17.0 0 1 306.72 474.41
  Q 300.42 478.49 298.26 485.07
  C 296.96 489.05 297.49 494.60 297.59 498.94
  Q 297.60 499.44 297.12 499.31
  Q 295.68 498.93 294.45 498.33
  Q 267.85 485.44 246.85 466.29
  Q 203.53 426.81 191.02 371.05
  Q 181.16 327.12 193.21 282.46
  C 202.34 248.64 223.22 218.02 249.90 195.73
  Q 286.41 165.23 333.77 155.97
  Q 385.84 145.78 436.80 165.70
  Z
  M 436.73 321.30
  Q 437.91 322.40 439.72 322.88
  C 448.21 325.11 455.62 326.40 464.34 324.25
  C 480.39 320.29 493.07 308.11 496.47 291.69
  C 501.05 269.52 488.79 249.52 467.90 241.72
  Q 467.34 241.51 467.34 240.90
  L 467.31 214.26
  A 3.05 3.05 0.0 0 0 464.26 211.21
  L 272.46 211.25
  A 2.72 2.71 -0.2 0 0 269.74 213.98
  L 269.88 241.47
  Q 269.88 242.07 269.31 242.27
  C 251.71 248.31 240.39 264.22 240.12 282.90
  Q 239.97 293.20 244.34 301.52
  Q 253.70 319.35 272.24 324.08
  C 280.89 326.29 288.20 325.66 296.57 322.83
  Q 298.64 322.13 300.32 320.90
  A 0.42 0.42 0.0 0 1 300.98 321.28
  Q 300.06 330.61 296.16 338.61
  Q 289.93 351.36 283.78 363.55
  C 283.13 364.83 282.73 366.19 282.20 367.51
  A 0.46 0.46 0.0 0 1 281.36 367.55
  Q 273.22 352.03 264.16 332.26
  Q 263.22 330.21 261.75 328.20
  A 1.37 1.37 0.0 0 0 260.49 327.65
  C 240.34 329.86 223.06 342.57 217.82 362.47
  C 215.87 369.90 216.41 380.18 216.51 388.61
  A 2.72 2.72 0.0 0 0 219.24 391.29
  Q 369.00 390.80 517.78 391.29
  A 2.39 2.38 -89.0 0 0 520.17 388.97
  Q 520.49 378.39 520.21 369.55
  Q 519.92 360.31 514.23 350.89
  Q 501.36 329.62 475.99 327.68
  Q 475.08 327.61 474.68 328.44
  L 456.31 366.30
  Q 455.37 368.22 454.44 366.30
  Q 446.34 349.45 438.28 332.49
  Q 436.37 328.48 436.28 321.50
  Q 436.27 320.87 436.73 321.30
  Z"
    />
    <path fill="#0a2f42" d="
  M 436.28 321.50
  Q 436.37 328.48 438.28 332.49
  Q 446.34 349.45 454.44 366.30
  Q 455.37 368.22 456.31 366.30
  L 474.68 328.44
  Q 475.08 327.61 475.99 327.68
  Q 501.36 329.62 514.23 350.89
  Q 519.92 360.31 520.21 369.55
  Q 520.49 378.39 520.17 388.97
  A 2.39 2.38 -89.0 0 1 517.78 391.29
  Q 369.00 390.80 219.24 391.29
  A 2.72 2.72 0.0 0 1 216.51 388.61
  C 216.41 380.18 215.87 369.90 217.82 362.47
  C 223.06 342.57 240.34 329.86 260.49 327.65
  A 1.37 1.37 0.0 0 1 261.75 328.20
  Q 263.22 330.21 264.16 332.26
  Q 273.22 352.03 281.36 367.55
  A 0.46 0.46 0.0 0 0 282.20 367.51
  C 282.73 366.19 283.13 364.83 283.78 363.55
  Q 289.93 351.36 296.16 338.61
  Q 300.06 330.61 300.98 321.28
  A 0.42 0.42 0.0 0 0 300.32 320.90
  Q 298.64 322.13 296.57 322.83
  C 288.20 325.66 280.89 326.29 272.24 324.08
  Q 253.70 319.35 244.34 301.52
  Q 239.97 293.20 240.12 282.90
  C 240.39 264.22 251.71 248.31 269.31 242.27
  Q 269.88 242.07 269.88 241.47
  L 269.74 213.98
  A 2.72 2.71 -0.2 0 1 272.46 211.25
  L 464.26 211.21
  A 3.05 3.05 0.0 0 1 467.31 214.26
  L 467.34 240.90
  Q 467.34 241.51 467.90 241.72
  C 488.79 249.52 501.05 269.52 496.47 291.69
  C 493.07 308.11 480.39 320.29 464.34 324.25
  C 455.62 326.40 448.21 325.11 439.72 322.88
  Q 437.91 322.40 436.73 321.30
  Q 436.27 320.87 436.28 321.50
  Z
  M 314.97 254.67
  C 333.05 275.33 327.60 305.33 304.37 319.58
  Q 302.12 320.96 304.76 320.79
  Q 312.33 320.30 325.02 320.33
  Q 377.93 320.50 432.69 320.43
  Q 433.14 320.43 433.04 319.99
  Q 432.94 319.51 432.52 319.27
  C 425.39 315.24 418.49 306.79 415.07 299.39
  Q 409.31 286.88 412.87 272.00
  C 417.07 254.49 432.94 241.81 450.41 239.79
  A 0.76 0.75 87.4 0 0 451.08 239.05
  L 451.24 227.88
  Q 451.24 227.27 450.63 227.27
  L 286.52 227.34
  Q 285.88 227.34 285.87 227.98
  L 285.73 239.48
  Q 285.72 239.80 286.05 239.84
  Q 303.51 241.57 314.97 254.67
  Z
  M 292.37 278.89
  Q 278.16 272.76 271.44 258.72
  Q 271.21 258.24 270.73 258.48
  C 255.08 266.58 251.47 287.34 262.87 300.52
  C 269.69 308.41 279.87 311.02 290.29 308.85
  Q 293.50 308.18 296.50 306.34
  Q 310.02 298.01 310.28 282.13
  Q 310.29 281.44 309.61 281.47
  C 303.73 281.71 297.66 281.17 292.37 278.89
  Z
  M 481.13 281.26
  C 474.69 281.56 468.33 281.29 462.23 278.65
  Q 448.45 272.68 441.87 258.97
  Q 441.62 258.43 441.09 258.71
  C 430.43 264.55 425.53 277.90 428.32 289.27
  C 431.08 300.50 439.89 308.34 451.79 309.40
  C 460.06 310.14 467.52 308.53 473.44 302.69
  Q 482.42 293.82 481.79 281.86
  A 0.63 0.63 0.0 0 0 481.13 281.26
  Z
  M 386.85 374.05
  C 386.37 358.35 393.64 345.86 405.31 335.95
  Q 405.96 335.39 405.10 335.40
  Q 369.36 335.64 331.62 335.28
  Q 330.84 335.27 331.44 335.77
  Q 349.88 351.01 349.95 374.00
  Q 349.95 374.74 350.69 374.73
  L 386.22 374.70
  Q 386.86 374.70 386.85 374.05
  Z"
    />
    <path fill="#de8a7d" d="
  M 304.37 319.58
  C 327.60 305.33 333.05 275.33 314.97 254.67
  Q 303.51 241.57 286.05 239.84
  Q 285.72 239.80 285.73 239.48
  L 285.87 227.98
  Q 285.88 227.34 286.52 227.34
  L 450.63 227.27
  Q 451.24 227.27 451.24 227.88
  L 451.08 239.05
  A 0.76 0.75 87.4 0 1 450.41 239.79
  C 432.94 241.81 417.07 254.49 412.87 272.00
  Q 409.31 286.88 415.07 299.39
  C 418.49 306.79 425.39 315.24 432.52 319.27
  Q 432.94 319.51 433.04 319.99
  Q 433.14 320.43 432.69 320.43
  Q 377.93 320.50 325.02 320.33
  Q 312.33 320.30 304.76 320.79
  Q 302.12 320.96 304.37 319.58
  Z
  M 363.79 262.56
  A 1.92 1.92 0.0 0 0 360.79 264.13
  L 360.65 283.37
  A 1.92 1.92 0.0 0 0 363.55 285.04
  L 378.68 276.03
  A 1.92 1.92 0.0 0 0 378.78 272.79
  L 363.79 262.56
  Z"
    />
    <path fill="#feffff" d="
  M 292.37 278.89
  C 297.66 281.17 303.73 281.71 309.61 281.47
  Q 310.29 281.44 310.28 282.13
  Q 310.02 298.01 296.50 306.34
  Q 293.50 308.18 290.29 308.85
  C 279.87 311.02 269.69 308.41 262.87 300.52
  C 251.47 287.34 255.08 266.58 270.73 258.48
  Q 271.21 258.24 271.44 258.72
  Q 278.16 272.76 292.37 278.89
  Z"
    />
    <path fill="#feffff" d="
  M 462.23 278.65
  C 468.33 281.29 474.69 281.56 481.13 281.26
  A 0.63 0.63 0.0 0 1 481.79 281.86
  Q 482.42 293.82 473.44 302.69
  C 467.52 308.53 460.06 310.14 451.79 309.40
  C 439.89 308.34 431.08 300.50 428.32 289.27
  C 425.53 277.90 430.43 264.55 441.09 258.71
  Q 441.62 258.43 441.87 258.97
  Q 448.45 272.68 462.23 278.65
  Z"
    />
    <path fill="#0a2f42" d="
  M 363.79 262.56
  L 378.78 272.79
  A 1.92 1.92 0.0 0 1 378.68 276.03
  L 363.55 285.04
  A 1.92 1.92 0.0 0 1 360.65 283.37
  L 360.79 264.13
  A 1.92 1.92 0.0 0 1 363.79 262.56
  Z"
    />
    <path fill="#feffff" d="
  M 405.31 335.95
  C 393.64 345.86 386.37 358.35 386.85 374.05
  Q 386.86 374.70 386.22 374.70
  L 350.69 374.73
  Q 349.95 374.74 349.95 374.00
  Q 349.88 351.01 331.44 335.77
  Q 330.84 335.27 331.62 335.28
  Q 369.36 335.64 405.10 335.40
  Q 405.96 335.39 405.31 335.95
  Z"
    />
    <circle fill="#feffff" cx="328.95" cy="421.19" r="4.81"/>
    <ellipse fill="#feffff" cx="0.00" cy="0.00" transform="translate(408.11,421.90) rotate(61.8)" rx="5.02" ry="4.68"/>
    <path fill="#feffff" d="
  M 372.5271 462.3066
  A 19.24 18.88 77.4 0 1 349.9047 447.6485
  A 19.24 18.88 77.4 0 1 364.1329 424.7534
  A 19.24 18.88 77.4 0 1 386.7553 439.4115
  A 19.24 18.88 77.4 0 1 372.5271 462.3066
  Z
  M 376.68 443.45
  A 8.31 8.31 0.0 0 0 368.37 435.14
  A 8.31 8.31 0.0 0 0 360.06 443.45
  A 8.31 8.31 0.0 0 0 368.37 451.76
  A 8.31 8.31 0.0 0 0 376.68 443.45
  Z"
    />
    <ellipse fill="#de8a7d" cx="0.00" cy="0.00" transform="translate(328.82,435.63) rotate(63.5)" rx="5.70" ry="5.55"/>
    <circle fill="#0a2f42" cx="368.37" cy="443.45" r="8.31"/>
    <rect fill="#feffff" x="-10.92" y="-4.55" transform="translate(368.33,482.42) rotate(0.2)" width="21.84"
          height="9.10" rx="4.35"/>
    <rect fill="#feffff" x="-11.01" y="-4.55" transform="translate(368.43,505.32) rotate(-0.4)" width="22.02"
          height="9.10" rx="4.36"/>
</svg>
